<svg xmlns="http://www.w3.org/2000/svg" viewBox="0 0 900 360">
  <rect width="900" height="360" rx="48" fill="#071107"/>
  <circle cx="165" cy="180" r="104" fill="#102f16" stroke="#9fea4d" stroke-width="14"/>
  <path d="M165 82c28 40 62 66 100 76-28 18-56 24-84 16 22 34 34 72 34 116-20-31-37-48-50-51-13 3-30 20-50 51 0-44 12-82 34-116-28 8-56 2-84-16 38-10 72-36 100-76Z" fill="#9fea4d"/>
  <text x="310" y="156" font-family="Arial" font-size="82" font-weight="900" fill="#f4ffe8">THC</text>
  <text x="310" y="242" font-family="Arial" font-size="74" font-weight="900" fill="#9fea4d">U KNOW</text>
</svg>
