<svg xmlns="http://www.w3.org/2000/svg" viewBox="0 0 336 504">
  <rect width="336" height="504" rx="38" fill="#050805"/>
  <rect x="16" y="16" width="304" height="472" rx="30" fill="#0f2412" stroke="#f4ffe8" stroke-width="10"/>
  <rect x="36" y="36" width="264" height="432" rx="22" fill="#111" stroke="#9fea4d" stroke-width="5"/>
  <path d="M168 118c26 36 55 58 88 66-25 16-50 21-74 14 19 30 29 63 28 101-18-26-32-41-42-43-10 2-24 17-42 43-1-38 9-71 28-101-24 7-49 2-74-14 33-8 62-30 88-66Z" fill="#9fea4d"/>
  <text x="168" y="350" text-anchor="middle" font-family="Arial" font-size="48" font-weight="900" fill="#f4ffe8">THC</text>
  <text x="168" y="404" text-anchor="middle" font-family="Arial" font-size="36" font-weight="900" fill="#9fea4d">U KNOW</text>
</svg>
